<svg width="20" height="20" fill="none" xmlns="http://www.w3.org/2000/svg"><g clip-path="url(#a)"><path opacity=".67" d="M7 5h10a2 2 0 0 1 2 2v8a2 2 0 0 1-2 2H7a2 2 0 0 1-1.732-1H4.171a3.001 3.001 0 0 0 2.83 2h10a3 3 0 0 0 3-3V7a3 3 0 0 0-3-3H7a3.001 3.001 0 0 0-2.939 2.39l.025-.01a5 5 0 0 1 1.148-.321A2 2 0 0 1 7.001 5z" fill="#605E5C"/><path d="M7 5h10a2 2 0 0 1 2 2v8a2 2 0 0 1-2 2H7a2 2 0 0 1-1.733-1H6a4.998 4.998 0 0 0 4.903-5.975 5 5 0 0 0-5.669-3.966A2 2 0 0 1 7 5z" fill="#fff"/><path d="M1 11a5 5 0 1 1 5 5H4.08a4.17 4.17 0 0 0 1.67-3.33H6A1.67 1.67 0 1 0 4.33 11v1.67a3.33 3.33 0 0 1-2.5 3.22A3.2 3.2 0 0 1 1 16v-5z" fill="#9354FF"/><path d="M10.242 6.757A5.998 5.998 0 0 0 9.316 6H16a2 2 0 0 1 2 2v1h-6.343a5.999 5.999 0 0 0-1.415-2.243z" fill="#A375FF"/><path d="M11.916 10a6.001 6.001 0 0 1-2.583 5.989L9.316 16H16a2 2 0 0 0 2-2v-4h-6.084z" fill="#D0BEFE"/></g><defs><clipPath id="a"><path fill="#fff" d="M0 0h20v20H0z"/></clipPath></defs></svg>